<svg version="1.1" xmlns="http://www.w3.org/2000/svg" xmlns:xlink="http://www.w3.org/1999/xlink" width="45.99206" height="18.0148" viewBox="0,0,45.99206,18.0148"><g transform="translate(-216.67356,-171.59739)"><g data-paper-data="{&quot;isPaintingLayer&quot;:true}" fill="none" fill-rule="nonzero" stroke="none" stroke-width="none" stroke-linecap="round" stroke-linejoin="miter" stroke-miterlimit="10" stroke-dasharray="" stroke-dashoffset="0" font-family="none" font-weight="none" font-size="none" text-anchor="none" style="mix-blend-mode: normal"><path d="M220.67357,185.6105c7.45923,0.08864 7.42292,-3.32285 12.80196,-4.41732c4.5534,-0.92648 6.85327,0.42173 10.98221,-0.29417c7.33547,-1.27187 3.21625,-6.72622 14.20788,-4.949" data-paper-data="{&quot;origPos&quot;:null}" stroke="#000000" stroke-width="8"/><path d="M220.67357,185.6105c7.45923,0.08864 7.42292,-3.32285 12.80196,-4.41732c4.5534,-0.92648 6.85327,0.42173 10.98221,-0.29417c7.33547,-1.27187 3.21625,-6.72622 14.20788,-4.949" data-paper-data="{&quot;origPos&quot;:null}" stroke="#3ae6df" stroke-width="5"/><path d="M254.40225,174.39598l0.32398,2.37609" data-paper-data="{&quot;origPos&quot;:null,&quot;origRot&quot;:0}" stroke="#249eff" stroke-width="3"/><path d="M249.23564,176.57963l0.87941,2.23101" data-paper-data="{&quot;origPos&quot;:null,&quot;origRot&quot;:0}" stroke="#249eff" stroke-width="3"/><path d="M244.78507,179.6125l0.225,2.3875" data-paper-data="{&quot;origPos&quot;:null}" stroke="#249eff" stroke-width="3"/><path d="M238.73024,179.71964l0.11243,2.39544" data-paper-data="{&quot;origPos&quot;:null,&quot;origRot&quot;:0}" stroke="#249eff" stroke-width="3"/><path d="M232.87221,180.1886l0.49516,2.3464" data-paper-data="{&quot;origPos&quot;:null,&quot;origRot&quot;:0}" stroke="#249eff" stroke-width="3"/><path d="M227.58471,182.73323l1.07017,2.14605" data-paper-data="{&quot;origPos&quot;:null,&quot;origRot&quot;:0}" stroke="#249eff" stroke-width="3"/><path d="M223.1703,184.1966l0.56565,2.33041" data-paper-data="{&quot;origPos&quot;:null,&quot;origRot&quot;:0}" stroke="#249eff" stroke-width="3"/></g></g></svg>