<svg version="1.1" xmlns="http://www.w3.org/2000/svg" xmlns:xlink="http://www.w3.org/1999/xlink" width="128.57888" height="135.26919" viewBox="0,0,128.57888,135.26919"><g transform="translate(-180.54969,-107.49205)"><g data-paper-data="{&quot;isPaintingLayer&quot;:true}" fill="none" fill-rule="nonzero" stroke="none" stroke-width="none" stroke-linecap="none" stroke-linejoin="miter" stroke-miterlimit="10" stroke-dasharray="" stroke-dashoffset="0" font-family="none" font-weight="none" font-size="none" text-anchor="none" style="mix-blend-mode: normal"><path d="M206.59665,178.5947c-2.18995,5.42606 -8.0733,6.75022 -11.47266,11.51283c-2.29077,3.20943 -2.74052,3.63233 -5.59944,6.34795c-1.78946,1.69977 -2.3472,-0.12539 -1.67873,-1.08595c0.64272,-0.92357 1.20606,-2.11978 0.32038,-1.98149c-2.32872,0.36362 -4.79998,0.79736 -6.1042,-1.25462c-3.84339,-6.04689 7.9283,-5.03066 11.24237,-7.27359c3.19594,-2.16298 6.5282,-5.52205 8.66524,-8.73539c1.72255,-2.59011 5.67964,-0.13776 4.62705,2.47026z" data-paper-data="{&quot;origPos&quot;:null,&quot;origRot&quot;:0,&quot;index&quot;:null}" fill="#f0e9cb" stroke="#000000" stroke-width="1.5" stroke-linecap="butt"/><path d="M287.70865,176.12443c2.13704,3.21334 5.4693,6.57242 8.66524,8.73539c3.31407,2.24292 15.08576,1.2267 11.24237,7.27359c-1.30423,2.05197 -3.77548,1.61823 -6.1042,1.25462c-0.88568,-0.13829 -0.32234,1.05792 0.32038,1.98149c0.66846,0.96056 0.11073,2.78572 -1.67873,1.08595c-2.85892,-2.71562 -3.30868,-3.13853 -5.59944,-6.34795c-3.39936,-4.7626 -9.28272,-6.08676 -11.47266,-11.51283c-1.0526,-2.60803 2.9045,-5.06038 4.62705,-2.47027z" data-paper-data="{&quot;origPos&quot;:null,&quot;origRot&quot;:0}" fill="#f0e9cb" stroke="#000000" stroke-width="1.5" stroke-linecap="butt"/><path d="M216.00228,239.77965c0.43911,-4.21394 10.71101,-2.43333 11.42346,-5.81352c1.32463,-6.2847 -0.63339,-14.56773 -0.63339,-14.56773c0,0 5.47217,-1.22466 7.49311,-0.89917c-0.08945,3.46555 -1.69628,9.29201 -1.32407,15.87551c0.15382,2.72069 1.60623,4.31639 0.12517,6.6038c0,0 -6.89722,0.40699 -9.86102,0.65572c-3.22623,0.27076 -7.55194,1.29953 -7.22326,-1.85462z" data-paper-data="{&quot;origPos&quot;:null}" fill="#f0e9cb" stroke="#000000" stroke-width="1.5" stroke-linecap="butt"/><path d="M264.80978,241.63428c-2.9638,-0.24873 -9.86102,-0.65572 -9.86102,-0.65572c-1.48105,-2.28741 -0.02865,-3.88312 0.12517,-6.6038c0.37221,-6.58351 -1.23462,-12.40997 -1.32407,-15.87551c2.02094,-0.32548 7.49311,0.89917 7.49311,0.89917c0,0 -1.95801,8.28303 -0.63339,14.56773c0.71244,3.38019 10.98434,1.59957 11.42346,5.81352c0.32867,3.15415 -3.99704,2.12538 -7.22326,1.85462z" data-paper-data="{&quot;origPos&quot;:null,&quot;index&quot;:null}" fill="#f0e9cb" stroke="#000000" stroke-width="1.5" stroke-linecap="butt"/><path d="M210.95571,227.17331c-12.63021,-4.46712 -20.43611,-16.70745 -17.08428,-27.42477c4.04024,-12.91849 8.1287,-16.34746 11.70578,-28.76876c3.17312,-11.01852 -1.24368,-17.92644 5.3785,-31.02622c4.50854,-8.91866 13.89235,-17.53387 33.71898,-17.53387c19.82662,0 27.0177,6.18459 32.8198,15.73552c6.60023,10.86475 4.16681,24.72487 7.03741,33.76485c4.22797,13.31454 8.87148,16.27754 10.94604,28.72765c1.85713,11.14532 -5.2272,20.55882 -12.13883,24.27766c-11.03379,5.9368 -28.3764,-0.89917 -38.21484,-0.89917c-9.83844,0 -24.3092,6.63421 -34.16856,3.1471z" data-paper-data="{&quot;origPos&quot;:null}" fill="#ffff94" stroke="#000000" stroke-width="1.5" stroke-linecap="butt"/><path d="M225.94671,178.38467c0,0 10.85266,-1.12397 17.65504,-1.12397c7.14644,0 18.08707,1.12397 18.08707,1.12397" data-paper-data="{&quot;origPos&quot;:null}" fill="none" stroke="#000000" stroke-width="1.5" stroke-linecap="round"/><path d="M252.36868,181.93922c0,0 -4.58342,1.12397 -8.09255,1.12397c-2.89504,0 -8.31735,-1.12397 -8.31735,-1.12397" data-paper-data="{&quot;origPos&quot;:null}" fill="none" stroke="#000000" stroke-width="1" stroke-linecap="round"/><path d="M226.29267,175.64501c0,0 -0.18674,1.67111 -0.61458,2.74071c-0.44944,1.12362 -1.63336,2.87912 -1.63336,2.87912" data-paper-data="{&quot;origPos&quot;:null}" fill="none" stroke="#000000" stroke-width="1" stroke-linecap="round"/><path d="M263.83313,181.26484c0,0 -1.1839,-1.75551 -1.63336,-2.87912c-0.42784,-1.0696 -0.61458,-2.74071 -0.61458,-2.74071" data-paper-data="{&quot;origPos&quot;:null,&quot;index&quot;:null}" fill="none" stroke="#000000" stroke-width="1" stroke-linecap="round"/><path d="M247.19844,166.26601c0,2.32442 -1.30836,4.20875 -2.92231,4.20875c-1.61395,0 -2.92231,-1.88432 -2.92231,-4.20875c0,-2.32442 1.30836,-9.72843 2.92231,-9.72843c1.61395,0 2.92231,7.40399 2.92231,9.72843z" data-paper-data="{&quot;origPos&quot;:null}" fill="#e6e5dc" stroke="#000000" stroke-width="1" stroke-linecap="butt"/><path d="M228.40085,164.41052c-1.51214,3.34131 -4.02192,4.96603 -9.31885,4.1649" data-paper-data="{&quot;origPos&quot;:null,&quot;origRot&quot;:0}" fill="none" stroke="#000000" stroke-width="1" stroke-linecap="round"/><path d="M268.86362,168.80022c-5.29693,0.80113 -7.80671,-0.8236 -9.31885,-4.1649" data-paper-data="{&quot;origPos&quot;:null,&quot;origRot&quot;:0,&quot;index&quot;:null}" fill="none" stroke="#000000" stroke-width="1" stroke-linecap="round"/><g data-paper-data="{&quot;origPos&quot;:null}" stroke="#000000" stroke-width="1.5"><g data-paper-data="{&quot;origPos&quot;:null}" stroke-linecap="butt"><path d="M260.45246,160.17642c0,-3.53827 2.86833,-6.40661 6.40661,-6.40661c3.53827,0 6.40661,2.86833 6.40661,6.40661c0,3.53827 -2.86833,6.40661 -6.40661,6.40661c-3.53827,0 -6.40661,-2.86833 -6.40661,-6.40661z" data-paper-data="{&quot;origPos&quot;:null}" fill="#ffffff"/><path d="M266.40948,159.67063c0,-0.77593 0.62902,-1.40496 1.40496,-1.40496c0.77594,0 1.40496,0.62903 1.40496,1.40496c0,0.77593 -0.62902,1.40496 -1.40496,1.40496c-0.77594,0 -1.40496,-0.62903 -1.40496,-1.40496z" data-paper-data="{&quot;origPos&quot;:null}" fill="#000000"/></g><path d="M275.4167,153.18376c-0.64227,2.00521 -2.11472,2.59933 -3.14354,2.75818" data-paper-data="{&quot;origPos&quot;:null}" fill="none" stroke-linecap="round"/><path d="M272.23797,150.98039c-0.0169,2.10549 -1.24606,3.11061 -2.18111,3.56821" data-paper-data="{&quot;origPos&quot;:null,&quot;origRot&quot;:0}" fill="none" stroke-linecap="round"/><path d="M276.90152,156.25987c-1.18885,1.73781 -2.76971,1.88606 -3.801,1.74407" data-paper-data="{&quot;origPos&quot;:null,&quot;origRot&quot;:0}" fill="none" stroke-linecap="round"/></g><g data-paper-data="{&quot;origPos&quot;:null}" stroke="#000000" stroke-width="1.5"><g data-paper-data="{&quot;origPos&quot;:null}" stroke-linecap="butt"><path d="M214.81944,160.17642c0,-3.53827 2.86833,-6.40661 6.40661,-6.40661c3.53827,0 6.40661,2.86833 6.40661,6.40661c0,3.53827 -2.86833,6.40661 -6.40661,6.40661c-3.53827,0 -6.40661,-2.86833 -6.40661,-6.40661z" data-paper-data="{&quot;origPos&quot;:null}" fill="#ffffff"/><path d="M220.77646,159.67063c0,-0.77593 0.62903,-1.40496 1.40496,-1.40496c0.77593,0 1.40496,0.62903 1.40496,1.40496c0,0.77593 -0.62903,1.40496 -1.40496,1.40496c-0.77593,0 -1.40496,-0.62903 -1.40496,-1.40496z" data-paper-data="{&quot;origPos&quot;:null}" fill="#000000"/></g><path d="M229.78369,153.18376c-0.64226,2.00521 -2.11472,2.59933 -3.14354,2.75818" data-paper-data="{&quot;origPos&quot;:null}" fill="none" stroke-linecap="round"/><path d="M226.60495,150.98039c-0.0169,2.10549 -1.24606,3.11061 -2.18111,3.56821" data-paper-data="{&quot;origPos&quot;:null,&quot;origRot&quot;:0}" fill="none" stroke-linecap="round"/><path d="M231.2685,156.25987c-1.18886,1.73781 -2.76971,1.88606 -3.801,1.74407" data-paper-data="{&quot;origPos&quot;:null,&quot;origRot&quot;:0}" fill="none" stroke-linecap="round"/></g><path d="M187.01524,162.32048v0v0z" data-paper-data="{&quot;origPos&quot;:null}" fill="#e6d26a" stroke="none" stroke-width="0" stroke-linecap="butt"/><g data-paper-data="{&quot;origPos&quot;:null}" fill="#e6d26a" stroke="none" stroke-width="0" stroke-linecap="butt"><path d="M277.07702,222.70421c0,-0.60006 0.48643,-1.0865 1.0865,-1.0865c0.60006,0 1.0865,0.48643 1.0865,1.0865c0,0.60006 -0.48644,1.08651 -1.0865,1.08651c-0.60006,0 -1.0865,-0.48644 -1.0865,-1.08651z" data-paper-data="{&quot;origPos&quot;:null}"/><path d="M289.44064,207.86786c0,-0.60006 0.48643,-1.0865 1.0865,-1.0865c0.60006,0 1.0865,0.48643 1.0865,1.0865c0,0.60006 -0.48644,1.08651 -1.0865,1.08651c-0.60006,0 -1.0865,-0.48644 -1.0865,-1.08651z" data-paper-data="{&quot;origPos&quot;:null}"/><path d="M286.96792,213.93728c0,-0.60006 0.48643,-1.0865 1.0865,-1.0865c0.60006,0 1.0865,0.48643 1.0865,1.0865c0,0.60006 -0.48644,1.08651 -1.0865,1.08651c-0.60006,0 -1.0865,-0.48644 -1.0865,-1.08651z" data-paper-data="{&quot;origPos&quot;:null}"/><path d="M280.22412,211.46454c0,-0.84836 0.63741,-1.53608 1.42369,-1.53608c0.78628,0 1.4237,0.68772 1.4237,1.53608c0,0.84836 -0.63741,1.53609 -1.4237,1.53609c-0.78628,0 -1.42369,-0.68773 -1.42369,-1.53609z" data-paper-data="{&quot;origPos&quot;:null}"/><path d="M282.69685,218.88273c0,-0.84836 0.63741,-1.53608 1.42369,-1.53608c0.78628,0 1.42369,0.68772 1.42369,1.53608c0,0.84836 -0.63741,1.53609 -1.42369,1.53609c-0.78628,0 -1.42369,-0.68773 -1.42369,-1.53609z" data-paper-data="{&quot;origPos&quot;:null}"/><path d="M286.29354,201.57365c0,-0.84836 0.63741,-1.53608 1.42369,-1.53608c0.78628,0 1.42369,0.68772 1.42369,1.53608c0,0.84836 -0.63741,1.53609 -1.42369,1.53609c-0.78628,0 -1.42369,-0.68773 -1.42369,-1.53609z" data-paper-data="{&quot;origPos&quot;:null}"/><path d="M268.53488,221.58024c0,-0.84836 0.63741,-1.53608 1.42369,-1.53608c0.78628,0 1.42369,0.68772 1.42369,1.53608c0,0.84836 -0.63741,1.53609 -1.42369,1.53609c-0.78628,0 -1.42369,-0.68773 -1.42369,-1.53609z" data-paper-data="{&quot;origPos&quot;:null}"/><path d="M278.42578,218.20835c0,-0.60006 0.48643,-1.0865 1.0865,-1.0865c0.60006,0 1.0865,0.48643 1.0865,1.0865c0,0.60006 -0.48644,1.08651 -1.0865,1.08651c-0.60006,0 -1.0865,-0.48644 -1.0865,-1.08651z" data-paper-data="{&quot;origPos&quot;:null}"/><path d="M273.48033,218.88273c0,-0.60006 0.48643,-1.0865 1.0865,-1.0865c0.60006,0 1.0865,0.48643 1.0865,1.0865c0,0.60006 -0.48644,1.08651 -1.0865,1.08651c-0.60006,0 -1.0865,-0.48644 -1.0865,-1.08651z" data-paper-data="{&quot;origPos&quot;:null}"/><path d="M284.94478,209.66621c0,-0.60006 0.48643,-1.0865 1.0865,-1.0865c0.60006,0 1.0865,0.48643 1.0865,1.0865c0,0.60006 -0.48644,1.08651 -1.0865,1.08651c-0.60006,0 -1.0865,-0.48644 -1.0865,-1.08651z" data-paper-data="{&quot;origPos&quot;:null}"/><path d="M282.24726,204.94555c0,-0.60006 0.48643,-1.0865 1.0865,-1.0865c0.60006,0 1.0865,0.48643 1.0865,1.0865c0,0.60006 -0.48644,1.08651 -1.0865,1.08651c-0.60006,0 -1.0865,-0.48644 -1.0865,-1.08651z" data-paper-data="{&quot;origPos&quot;:null}"/><path d="M274.82909,213.71248c0,-0.60006 0.48643,-1.0865 1.0865,-1.0865c0.60006,0 1.0865,0.48643 1.0865,1.0865c0,0.60006 -0.48644,1.08651 -1.0865,1.08651c-0.60006,0 -1.0865,-0.48644 -1.0865,-1.08651z" data-paper-data="{&quot;origPos&quot;:null}"/></g><g data-paper-data="{&quot;origPos&quot;:null}" fill="#e6d26a" stroke="none" stroke-width="0" stroke-linecap="butt"><path d="M237.32074,162.90923c0,-0.60005 0.48644,-1.0865 1.0865,-1.0865c0.60005,0 1.0865,0.48644 1.0865,1.0865c0,0.60005 -0.48644,1.0865 -1.0865,1.0865c-0.60005,0 -1.0865,-0.48644 -1.0865,-1.0865z" data-paper-data="{&quot;origPos&quot;:null}"/><path d="M234.36632,169.07498c0,-0.60006 0.48644,-1.0865 1.0865,-1.0865c0.60006,0 1.08651,0.48643 1.08651,1.0865c0,0.60006 -0.48644,1.08651 -1.08651,1.08651c-0.60006,0 -1.0865,-0.48644 -1.0865,-1.08651z" data-paper-data="{&quot;origPos&quot;:null}"/><path d="M251.32214,162.39541c0,-0.60006 0.48644,-1.0865 1.0865,-1.0865c0.60006,0 1.08651,0.48643 1.08651,1.0865c0,0.60006 -0.48644,1.08651 -1.08651,1.08651c-0.60006,0 -1.0865,-0.48644 -1.0865,-1.08651z" data-paper-data="{&quot;origPos&quot;:null}"/><path d="M248.23926,171.00178c0,-0.60006 0.48644,-1.0865 1.0865,-1.0865c0.60006,0 1.08651,0.48643 1.08651,1.0865c0,0.60006 -0.48644,1.08651 -1.08651,1.08651c-0.60006,0 -1.0865,-0.48644 -1.0865,-1.08651z" data-paper-data="{&quot;origPos&quot;:null}"/><path d="M238.09145,157.51419c0,-0.60006 0.48644,-1.0865 1.0865,-1.0865c0.60006,0 1.08651,0.48643 1.08651,1.0865c0,0.60006 -0.48644,1.08651 -1.08651,1.08651c-0.60006,0 -1.0865,-0.48644 -1.0865,-1.08651z" data-paper-data="{&quot;origPos&quot;:null}"/><path d="M248.11081,160.21171c0,-0.60006 0.48643,-1.0865 1.0865,-1.0865c0.60006,0 1.0865,0.48643 1.0865,1.0865c0,0.60006 -0.48644,1.08651 -1.0865,1.08651c-0.60006,0 -1.0865,-0.48644 -1.0865,-1.08651z" data-paper-data="{&quot;origPos&quot;:null}"/><path d="M233.98096,159.82634c0,-0.60006 0.48644,-1.0865 1.0865,-1.0865c0.60006,0 1.08651,0.48643 1.08651,1.0865c0,0.60006 -0.48644,1.08651 -1.08651,1.08651c-0.60006,0 -1.0865,-0.48644 -1.0865,-1.08651z" data-paper-data="{&quot;origPos&quot;:null}"/><path d="M232.95333,164.83602c0,-0.60006 0.48644,-1.0865 1.0865,-1.0865c0.60006,0 1.08651,0.48643 1.08651,1.0865c0,0.60006 -0.48644,1.08651 -1.08651,1.08651c-0.60006,0 -1.0865,-0.48644 -1.0865,-1.08651z" data-paper-data="{&quot;origPos&quot;:null}"/><path d="M254.91883,164.45066c0,-0.60006 0.48644,-1.0865 1.0865,-1.0865c0.60006,0 1.08651,0.48643 1.08651,1.0865c0,0.60006 -0.48644,1.08651 -1.08651,1.08651c-0.60006,0 -1.0865,-0.48644 -1.0865,-1.08651z" data-paper-data="{&quot;origPos&quot;:null}"/><path d="M255.43265,160.08325c0,-0.60006 0.48644,-1.0865 1.0865,-1.0865c0.60006,0 1.08651,0.48643 1.08651,1.0865c0,0.60006 -0.48644,1.08651 -1.08651,1.08651c-0.60006,0 -1.0865,-0.48644 -1.0865,-1.08651z" data-paper-data="{&quot;origPos&quot;:null}"/><path d="M237.96301,166.89128c0,-0.60006 0.48644,-1.0865 1.0865,-1.0865c0.60006,0 1.08651,0.48643 1.08651,1.0865c0,0.60006 -0.48644,1.08651 -1.08651,1.08651c-0.60006,0 -1.0865,-0.48644 -1.0865,-1.08651z" data-paper-data="{&quot;origPos&quot;:null}"/><path d="M229.61355,168.17581c0,-0.60006 0.48644,-1.0865 1.0865,-1.0865c0.60006,0 1.0865,0.48643 1.0865,1.0865c0,0.60006 -0.48644,1.08651 -1.0865,1.08651c-0.60006,0 -1.0865,-0.48644 -1.0865,-1.08651z" data-paper-data="{&quot;origPos&quot;:null}"/><path d="M238.34837,171.00177c0,-0.60006 0.48644,-1.0865 1.0865,-1.0865c0.60006,0 1.0865,0.48643 1.0865,1.0865c0,0.60006 -0.48644,1.08651 -1.0865,1.08651c-0.60006,0 -1.0865,-0.48644 -1.0865,-1.08651z" data-paper-data="{&quot;origPos&quot;:null}"/><path d="M248.88153,166.24901c0,-0.60006 0.48644,-1.0865 1.0865,-1.0865c0.60006,0 1.0865,0.48643 1.0865,1.0865c0,0.60006 -0.48644,1.08651 -1.0865,1.08651c-0.60006,0 -1.0865,-0.48644 -1.0865,-1.08651z" data-paper-data="{&quot;origPos&quot;:null}"/><path d="M252.99204,167.53354c0,-0.60006 0.48644,-1.0865 1.0865,-1.0865c0.60006,0 1.0865,0.48643 1.0865,1.0865c0,0.60006 -0.48644,1.08651 -1.0865,1.08651c-0.60006,0 -1.0865,-0.48644 -1.0865,-1.08651z" data-paper-data="{&quot;origPos&quot;:null}"/><path d="M257.23099,169.71724c0,-0.60006 0.48644,-1.0865 1.0865,-1.0865c0.60006,0 1.0865,0.48643 1.0865,1.0865c0,0.60006 -0.48644,1.08651 -1.0865,1.08651c-0.60006,0 -1.0865,-0.48644 -1.0865,-1.08651z" data-paper-data="{&quot;origPos&quot;:null}"/><path d="M251.4506,157.12882c0,-0.60006 0.48643,-1.0865 1.0865,-1.0865c0.60006,0 1.08651,0.48643 1.08651,1.0865c0,0.60006 -0.48644,1.08651 -1.08651,1.08651c-0.60006,0 -1.0865,-0.48644 -1.0865,-1.08651z" data-paper-data="{&quot;origPos&quot;:null}"/></g><g data-paper-data="{&quot;origPos&quot;:null,&quot;index&quot;:null}" fill="#e6d26a" stroke="none" stroke-width="0" stroke-linecap="butt"><path d="M211.39995,223.79071c-0.60006,0 -1.0865,-0.48644 -1.0865,-1.08651c0,-0.60006 0.48644,-1.0865 1.0865,-1.0865c0.60006,0 1.0865,0.48643 1.0865,1.0865c0,0.60006 -0.48643,1.08651 -1.0865,1.08651z" data-paper-data="{&quot;origPos&quot;:null}"/><path d="M199.03633,208.95436c-0.60006,0 -1.0865,-0.48644 -1.0865,-1.08651c0,-0.60006 0.48644,-1.0865 1.0865,-1.0865c0.60006,0 1.0865,0.48643 1.0865,1.0865c0,0.60006 -0.48643,1.08651 -1.0865,1.08651z" data-paper-data="{&quot;origPos&quot;:null}"/><path d="M201.50905,215.02377c-0.60006,0 -1.0865,-0.48644 -1.0865,-1.08651c0,-0.60006 0.48644,-1.0865 1.0865,-1.0865c0.60006,0 1.0865,0.48643 1.0865,1.0865c0,0.60006 -0.48643,1.08651 -1.0865,1.08651z" data-paper-data="{&quot;origPos&quot;:null}"/><path d="M207.91566,213.00063c-0.78628,0 -1.42369,-0.68773 -1.42369,-1.53609c0,-0.84836 0.63741,-1.53608 1.42369,-1.53608c0.78628,0 1.42369,0.68772 1.42369,1.53608c0,0.84836 -0.63741,1.53609 -1.42369,1.53609z" data-paper-data="{&quot;origPos&quot;:null}"/><path d="M205.44293,220.41881c-0.78628,0 -1.42369,-0.68773 -1.42369,-1.53609c0,-0.84836 0.63741,-1.53608 1.42369,-1.53608c0.78628,0 1.42369,0.68772 1.42369,1.53608c0,0.84836 -0.63741,1.53609 -1.42369,1.53609z" data-paper-data="{&quot;origPos&quot;:null}"/><path d="M201.84624,203.10973c-0.78628,0 -1.42369,-0.68773 -1.42369,-1.53609c0,-0.84836 0.63741,-1.53608 1.42369,-1.53608c0.78628,0 1.42369,0.68772 1.42369,1.53608c0,0.84836 -0.63741,1.53609 -1.42369,1.53609z" data-paper-data="{&quot;origPos&quot;:null}"/><path d="M219.6049,223.11633c-0.78628,0 -1.42369,-0.68773 -1.42369,-1.53609c0,-0.84836 0.63741,-1.53608 1.42369,-1.53608c0.78628,0 1.42369,0.68772 1.42369,1.53608c0,0.84836 -0.63741,1.53609 -1.42369,1.53609z" data-paper-data="{&quot;origPos&quot;:null}"/><path d="M210.05119,219.29484c-0.60006,0 -1.0865,-0.48644 -1.0865,-1.08651c0,-0.60006 0.48644,-1.0865 1.0865,-1.0865c0.60006,0 1.0865,0.48643 1.0865,1.0865c0,0.60006 -0.48643,1.08651 -1.0865,1.08651z" data-paper-data="{&quot;origPos&quot;:null}"/><path d="M214.99664,219.96922c-0.60006,0 -1.0865,-0.48644 -1.0865,-1.08651c0,-0.60006 0.48644,-1.0865 1.0865,-1.0865c0.60006,0 1.0865,0.48643 1.0865,1.0865c0,0.60006 -0.48643,1.08651 -1.0865,1.08651z" data-paper-data="{&quot;origPos&quot;:null}"/><path d="M203.53219,210.7527c-0.60006,0 -1.0865,-0.48644 -1.0865,-1.08651c0,-0.60006 0.48644,-1.0865 1.0865,-1.0865c0.60006,0 1.0865,0.48643 1.0865,1.0865c0,0.60006 -0.48643,1.08651 -1.0865,1.08651z" data-paper-data="{&quot;origPos&quot;:null}"/><path d="M206.22971,206.03205c-0.60006,0 -1.0865,-0.48644 -1.0865,-1.08651c0,-0.60006 0.48644,-1.0865 1.0865,-1.0865c0.60006,0 1.0865,0.48643 1.0865,1.0865c0,0.60006 -0.48643,1.08651 -1.0865,1.08651z" data-paper-data="{&quot;origPos&quot;:null}"/><path d="M213.64789,214.79898c-0.60006,0 -1.0865,-0.48644 -1.0865,-1.08651c0,-0.60006 0.48644,-1.0865 1.0865,-1.0865c0.60006,0 1.0865,0.48643 1.0865,1.0865c0,0.60006 -0.48643,1.08651 -1.0865,1.08651z" data-paper-data="{&quot;origPos&quot;:null}"/></g><path d="M245.85458,126.06428c-0.68521,-3.25219 -0.88256,-3.61843 -0.28421,-7.79285c0.66386,-4.63152 1.20219,-5.73293 2.38228,-9.29143c0.73777,-2.22473 5.9037,1.20552 5.17725,2.09808c-1.37617,1.69084 -2.66232,2.99769 -3.55618,7.79408c-0.68842,3.69409 -0.55636,4.07146 -0.93968,7.19212c-0.3506,2.3148 -2.32029,2.17934 -2.77945,0z" data-paper-data="{&quot;origPos&quot;:null}" fill="#c79140" stroke="#000000" stroke-width="1.5" stroke-linecap="butt"/></g></g></svg>