<svg version="1.1" xmlns="http://www.w3.org/2000/svg" xmlns:xlink="http://www.w3.org/1999/xlink" width="72.12112" height="118.94395" viewBox="0,0,72.12112,118.94395"><g transform="translate(-209.94346,-117.68105)"><g data-paper-data="{&quot;isPaintingLayer&quot;:true}" fill="none" fill-rule="nonzero" stroke="none" stroke-width="1.5" stroke-linecap="none" stroke-linejoin="miter" stroke-miterlimit="10" stroke-dasharray="" stroke-dashoffset="0" font-family="none" font-weight="none" font-size="none" text-anchor="none" style="mix-blend-mode: normal"><path d="M212.35938,235.875c-2.555,-0.84434 -1.84445,-1.73625 -0.05589,-3.71713c2.04501,-2.26489 13.69391,-4.22228 13.7359,-7.27351c0.02132,-1.55004 -6.80506,-10.98248 -5.45007,-17.83199c0.15024,-8.20287 2.90457,-11.42724 2.76825,-22.50658c-0.16075,-13.06458 -8.07179,-26.41982 -7.57924,-39.47611c0.53096,-14.07445 10.82037,-26.23599 22.89959,-26.63863c10.41278,-0.34709 24.51069,10.11289 25.68147,24.11062c1.21321,14.50505 -2.28824,24.74232 -2.17712,39.33214c0.08168,10.72315 3.8029,14.03092 5.48442,23.37909c1.65935,9.22493 -4.83561,17.17435 -2.173,19.13702c6.16422,4.54377 8.89588,3.54904 13.50693,6.4991c2.29647,1.46923 3.47647,4.41005 0.6921,4.31932c-4.10419,-0.13374 -9.868,-1.7347 -15.33157,-1.80466c-4.18602,-0.0536 -6.1485,1.73755 -9.33509,0.47133c-4.12485,-1.63905 -0.81889,-4.79156 -0.43473,-6.61787c1.10753,-5.26512 3.28238,-11.02641 2.77911,-16.38316c-0.59828,-6.36811 -3.56533,-10.57957 -7.80287,-15.3706c-0.72026,-1.97065 -11.65386,-1.36128 -12.54151,0.37163c-3.42145,5.28717 -6.42033,10.01949 -6.26516,16.31522c0.17169,6.96609 5.24814,15.35416 5.24814,15.35416c0,0 2.17695,5.39414 -0.98298,6.99729c-2.09947,1.06514 -4.18661,-0.12445 -8.99975,0.00925c-4.55317,0.12647 -11.1787,2.14635 -13.66692,1.32408z" data-paper-data="{&quot;origPos&quot;:null}" fill="#aaffaa" stroke="#000000" stroke-linecap="butt"/><path d="M234.69271,140.875c-4.78234,4.42716 -13.66667,6 -13.66667,6" data-paper-data="{&quot;origPos&quot;:null}" fill="none" stroke="#000000" stroke-linecap="round"/><path d="M259.35937,144.87501c0,0 -7.03276,0.42439 -13.66666,-4.33334" data-paper-data="{&quot;origPos&quot;:null}" fill="none" stroke="#000000" stroke-linecap="round"/><path d="M239.69271,145.54167c0,0 2.19386,6.83174 3.8114,9.9243c2.18517,4.17781 6.4642,6.60183 5.59921,8.37178c-4.05015,0.17965 -8.07728,0.03725 -8.07728,0.03725" data-paper-data="{&quot;origPos&quot;:null}" fill="none" stroke="#4d4d4d" stroke-linecap="round"/><path d="M235.02604,170.54167c10.59929,-0.31149 13.33334,3.66667 13.33334,3.66667" data-paper-data="{&quot;origPos&quot;:null}" fill="none" stroke="#000000" stroke-linecap="round"/></g></g></svg>
