<svg version="1.1" xmlns="http://www.w3.org/2000/svg" xmlns:xlink="http://www.w3.org/1999/xlink" width="122.84588" height="107.66913" viewBox="0,0,122.84588,107.66913"><g transform="translate(-182.87593,-127.34535)"><g data-paper-data="{&quot;isPaintingLayer&quot;:true}" fill="none" fill-rule="nonzero" stroke="none" stroke-width="none" stroke-linecap="none" stroke-linejoin="miter" stroke-miterlimit="10" stroke-dasharray="" stroke-dashoffset="0" font-family="none" font-weight="none" font-size="none" text-anchor="none" style="mix-blend-mode: normal"><path d="M299.2644,207c-5,2.93206 -9.13393,-1.91592 -8.37121,-6.80614c0.77111,-4.94405 7.98225,-5.77499 6.53788,-10.86053c-1.41264,-4.97384 -3.88887,-7.2779 -9.35296,-8.84575c-2.96422,-0.85055 -2.00934,-6.37772 1.18629,-5.15425c1.92765,0.73802 11.12802,5.73007 13.83334,12.66667c3.75,9.61524 1.566,15.83377 -3.83334,19z" data-paper-data="{&quot;origPos&quot;:null,&quot;index&quot;:null}" fill="#fef1c9" stroke="#000000" stroke-width="1.5" stroke-linecap="butt"/><path d="M256.0105,230.43293c-0.37305,-2.19167 0.88967,-17.3485 0.88967,-17.3485h3.55867c0,0 -0.89184,10.02578 1.32178,11.96106c5.45702,4.77086 16.47155,-0.52652 16.47155,6.72194c0,3.64564 -17.79333,2.22416 -17.79333,2.22416c0,0 -4.07529,-1.367 -4.44834,-3.55866z" data-paper-data="{&quot;origPos&quot;:null}" fill="#fef1c9" stroke="#000000" stroke-width="1.5" stroke-linecap="butt"/><path d="M230.14124,233.10193c0,0 -17.79333,1.42147 -17.79333,-2.22416c0,-7.24846 11.01453,-1.95108 16.47155,-6.72194c2.21362,-1.93528 1.32179,-11.96107 1.32179,-11.96107h3.55867c0,0 1.26272,15.15684 0.88967,17.34851c-0.37305,2.19167 -4.44834,3.55866 -4.44834,3.55866z" data-paper-data="{&quot;origPos&quot;:null,&quot;index&quot;:null}" fill="#fef1c9" stroke="#000000" stroke-width="1.5" stroke-linecap="butt"/><path d="M290.70751,178.38742c0,22.11072 -20.91166,40.03501 -46.70751,40.03501c-25.79584,0 -46.7075,-17.92429 -46.7075,-40.03501c0,-22.11072 15.57366,-39.59017 48.042,-30.24867c28.02001,-8.89667 45.37301,8.13795 45.37301,30.24867z" data-paper-data="{&quot;origPos&quot;:null}" fill="#ff6666" stroke="#000000" stroke-width="1.5" stroke-linecap="butt"/><path d="M216.42033,164.59759l17.79333,-3.11383" data-paper-data="{&quot;origPos&quot;:null}" fill="none" stroke="#000000" stroke-width="2" stroke-linecap="round"/><path d="M261.79334,161.92859l16.014,4.0035" data-paper-data="{&quot;origPos&quot;:null}" fill="none" stroke="#000000" stroke-width="2" stroke-linecap="round"/><path d="M240.44134,171.27009c0,0 4.06847,3.55867 6.6725,3.55867c2.95123,0 7.56216,-3.55867 7.56216,-3.55867" data-paper-data="{&quot;origPos&quot;:null}" fill="none" stroke="#7e0000" stroke-width="2" stroke-linecap="round"/><path d="M245,149l0.5,-11" data-paper-data="{&quot;origPos&quot;:null}" fill="none" stroke="#714900" stroke-width="2.5" stroke-linecap="round"/><path d="M246.22115,136.92814c0,0 -6.86173,4.34081 -13.88743,2.86172c-7.0257,-1.4791 -12.19898,-5.15842 -11.55487,-8.218c0.64412,-3.05957 6.86174,-4.34081 13.88743,-2.86171c7.0257,1.4791 11.55486,8.21799 11.55486,8.21799z" data-paper-data="{&quot;origPos&quot;:null,&quot;origRot&quot;:0}" fill="#05a500" stroke="#000000" stroke-width="1.5" stroke-linecap="butt"/><path d="M244.66667,137.33334l-17.66666,-4.66667" data-paper-data="{&quot;origPos&quot;:null}" fill="none" stroke="#035900" stroke-width="1" stroke-linecap="round"/><path d="M189.33334,207.33334c5,2.93206 9.13392,-1.91591 8.37121,-6.80614c-0.77111,-4.94405 -7.98225,-5.77499 -6.53788,-10.86053c1.41264,-4.97383 3.88887,-7.27789 9.35296,-8.84575c2.96423,-0.85055 2.00934,-6.37772 -1.18629,-5.15425c-1.92765,0.73802 -11.12802,5.73007 -13.83333,12.66667c-3.75,9.61525 -1.566,15.83377 3.83334,19z" data-paper-data="{&quot;origPos&quot;:null}" fill="#fef1c9" stroke="#000000" stroke-width="1.5" stroke-linecap="butt"/></g></g></svg>